<?xml version="1.0" standalone="no"?>
<!DOCTYPE svg PUBLIC "-//W3C//DTD SVG 20010904//EN"
 "http://www.w3.org/TR/2001/REC-SVG-20010904/DTD/svg10.dtd">


<svg xmlns="http://www.w3.org/2000/svg" viewBox="0 0 225.000000 225.000000">

<g transform="translate(0.000000,225.000000) scale(0.100000,-0.100000)"
fill="#000000" stroke="none">
<path d="M0 1125 l0 -1125 123 0 122 0 0 462 0 463 78 3 77 3 0 -391 0 -390
578 2 577 3 3 387 2 388 75 0 75 0 0 -465 0 -465 270 0 270 0 0 1125 0 1125
-198 0 -199 0 18 -94 c31 -160 129 -741 129 -763 0 -19 -9 -23 -72 -33 -40 -6
-80 -14 -90 -16 -13 -4 -18 6 -26 43 -25 118 -144 824 -140 828 2 3 42 11 89
19 76 13 -9 14 -838 15 l-923 1 0 -1125z m1306 908 c30 -41 202 -290 352 -511
l131 -192 -74 -50 c-41 -28 -78 -50 -82 -50 -9 0 -43 48 -310 444 -101 148
-183 274 -183 280 1 10 127 104 141 106 3 0 14 -12 25 -27z m-94 -604 c205
-121 376 -223 380 -227 5 -6 -66 -139 -85 -158 -8 -8 -59 21 -464 263 -161 96
-293 179 -293 185 0 11 80 158 86 158 1 0 171 -99 376 -221z m-147 -332 c204
-55 380 -102 393 -104 28 -7 28 -27 1 -121 -17 -56 -26 -71 -38 -68 -9 3 -187
51 -396 107 -209 55 -391 105 -405 109 -21 6 -25 13 -24 41 1 19 9 60 19 92
17 58 17 58 48 51 18 -4 199 -52 402 -107z m-255 -302 c499 -47 606 -58 613
-64 8 -8 -2 -154 -13 -171 -6 -10 -101 -4 -416 24 -225 20 -422 39 -437 42
l-28 6 6 81 c9 114 6 109 67 103 29 -3 123 -13 208 -21z m598 -397 l3 -98
-446 0 -445 0 0 94 c0 82 2 95 18 99 9 3 208 4 442 3 l425 -1 3 -97z"/>
</g>
</svg>
